<?xml version="1.0" standalone="no"?>
<!DOCTYPE svg PUBLIC "-//W3C//DTD SVG 20010904//EN"
 "http://www.w3.org/TR/2001/REC-SVG-20010904/DTD/svg10.dtd">
<svg version="1.0" xmlns="http://www.w3.org/2000/svg"
 width="1280.000000pt" height="1102.000000pt" viewBox="0 0 1280.000000 1102.000000"
 preserveAspectRatio="xMidYMid meet">

<g transform="translate(0.000000,1102.000000) scale(0.100000,-0.100000)"
fill="#2b292a" stroke="fff">
<path d="M0 5510 l0 -5510 6400 0 6400 0 0 5510 0 5510 -6400 0 -6400 0 0
-5510z m6725 4430 c1138 -61 2169 -481 3000 -1221 237 -212 494 -494 658 -725
15 -21 48 -67 72 -101 25 -35 92 -140 148 -235 416 -694 627 -1453 627 -2252
0 -621 -122 -1198 -372 -1766 -643 -1459 -2046 -2498 -3683 -2729 -933 -132
-1886 8 -2738 400 -341 157 -724 391 -973 596 -22 17 -57 46 -79 63 -81 64
-319 288 -423 400 -686 732 -1088 1604 -1198 2600 -22 199 -22 661 -1 865 58
535 198 1023 432 1500 530 1081 1495 1924 2673 2337 420 147 931 248 1337 264
83 4 152 8 154 10 8 7 174 4 366 -6z" stroke="fff"/>
<path d="M6225 9894 c-16 -2 -86 -9 -155 -15 -907 -78 -1765 -401 -2475 -933
-237 -178 -602 -521 -771 -726 -162 -197 -281 -365 -414 -585 -600 -999 -773
-2194 -480 -3320 194 -748 599 -1453 1155 -2011 777 -780 1838 -1273 2960
-1375 183 -17 720 -17 895 0 403 39 811 130 1185 263 1080 386 1960 1123 2510
2101 270 481 432 978 521 1597 26 175 31 750 9 941 -16 144 -46 340 -66 434
-87 406 -197 721 -375 1076 -225 451 -457 773 -822 1143 -398 402 -771 672
-1267 916 -660 325 -1340 485 -2100 495 -154 2 -293 1 -310 -1z m690 -79 c627
-67 1123 -206 1645 -458 337 -163 706 -409 1010 -672 114 -98 350 -337 451
-455 437 -511 765 -1149 923 -1796 121 -494 150 -1068 80 -1579 -154 -1130
-772 -2173 -1709 -2882 -633 -478 -1400 -793 -2190 -897 -263 -35 -360 -41
-640 -41 -333 0 -540 18 -840 71 -827 149 -1573 501 -2215 1047 -743 631
-1274 1537 -1449 2472 -59 316 -63 362 -68 750 -4 357 -4 377 22 570 107 815
395 1500 899 2145 539 689 1306 1223 2164 1506 366 121 699 187 1117 224 101
9 708 5 800 -5z" stroke="fff"/>
<path d="M6235 9782 c-635 -33 -1283 -206 -1858 -493 -192 -97 -275 -144 -457
-264 -566 -373 -1036 -863 -1376 -1433 -277 -466 -456 -966 -548 -1532 -68
-415 -56 -983 29 -1421 221 -1134 888 -2127 1870 -2783 529 -354 1167 -606
1795 -710 332 -55 411 -61 795 -60 382 0 472 7 790 60 1230 203 2350 918 3022
1929 363 546 584 1122 680 1775 22 153 26 218 30 518 5 361 -3 491 -47 757
-210 1262 -989 2371 -2132 3036 -572 333 -1239 545 -1903 604 -153 14 -563 24
-690 17z m3123 -1316 c45 -24 298 -286 365 -378 34 -47 94 -128 134 -179 158
-207 334 -522 368 -657 13 -54 16 -104 13 -223 l-3 -154 -37 -78 c-41 -87
-130 -188 -207 -235 -25 -16 -221 -134 -436 -262 -409 -245 -518 -314 -549
-348 -21 -24 -15 -52 11 -52 22 0 5 -5 820 264 359 119 664 216 678 216 40 0
59 -59 95 -296 30 -189 33 -236 37 -490 5 -299 2 -328 -52 -489 -46 -135 -174
-284 -297 -346 -134 -68 -158 -71 -593 -80 -214 -5 -479 -12 -587 -16 -206 -8
-234 -15 -212 -51 11 -17 69 -33 239 -66 44 -9 116 -23 160 -31 44 -9 188 -38
320 -66 132 -27 323 -65 424 -85 101 -19 187 -37 191 -39 3 -2 46 -11 94 -19
96 -17 126 -35 126 -75 0 -29 -78 -265 -114 -343 -13 -29 -36 -82 -51 -118
-15 -36 -61 -132 -102 -215 -72 -142 -81 -155 -177 -253 -87 -89 -113 -109
-191 -147 -198 -96 -350 -87 -677 44 -67 27 -177 74 -243 106 -169 80 -374
166 -411 172 -39 6 -49 -8 -30 -44 17 -33 213 -226 271 -268 22 -16 72 -59
111 -95 94 -86 284 -255 359 -317 84 -70 215 -208 215 -226 0 -34 -298 -308
-495 -455 -44 -32 -105 -68 -135 -80 -30 -11 -98 -41 -150 -66 -130 -62 -209
-79 -335 -74 -89 4 -109 9 -175 40 -134 63 -238 145 -489 383 -253 240 -287
268 -297 240 -12 -30 5 -73 139 -346 286 -584 310 -636 298 -657 -29 -54 -449
-161 -841 -214 -131 -17 -791 -18 -920 0 -337 47 -682 122 -805 176 -46 21
-55 29 -55 51 0 14 40 108 89 208 49 100 126 261 171 357 45 96 108 225 141
287 62 117 73 163 40 163 -21 0 -184 -145 -416 -371 -197 -193 -324 -277 -464
-309 -80 -19 -230 -8 -316 23 -141 51 -328 148 -423 221 -51 39 -119 90 -150
114 -90 69 -302 284 -302 307 0 22 114 138 235 240 72 60 103 89 285 261 58
54 150 138 205 185 124 108 225 212 225 233 0 12 -11 16 -45 16 -46 0 -115
-27 -395 -155 -394 -180 -602 -236 -765 -206 -33 6 -97 29 -142 51 -70 34
-100 59 -196 154 -106 107 -118 123 -179 243 -148 288 -288 645 -273 694 10
30 45 48 126 64 41 8 184 37 319 65 135 28 369 75 520 105 151 30 320 66 374
80 109 27 149 52 130 83 -10 15 -40 18 -290 23 -790 17 -860 24 -1006 92 -111
52 -214 160 -283 298 -74 146 -85 211 -85 492 0 207 6 297 31 457 5 36 14 98
19 138 18 146 57 242 98 242 15 0 849 -273 1027 -337 90 -32 318 -106 417
-136 56 -17 69 1 34 48 -33 43 -126 104 -600 390 -335 203 -376 230 -451 305
-67 66 -91 99 -121 163 -35 75 -37 86 -42 201 -6 175 12 265 81 408 74 152
207 362 341 538 132 174 457 510 494 510 27 0 64 -38 190 -199 53 -68 123
-156 155 -195 31 -39 92 -116 134 -171 42 -55 147 -188 232 -296 86 -108 183
-232 216 -275 33 -43 105 -135 160 -205 55 -70 129 -165 165 -211 36 -45 95
-118 132 -161 37 -42 70 -87 73 -98 7 -22 -8 -49 -66 -119 -64 -77 -164 -252
-214 -376 -94 -234 -117 -359 -122 -674 -4 -238 1 -290 31 -290 19 0 48 42 76
110 31 72 148 239 224 318 95 98 236 187 384 241 143 53 215 64 395 59 147 -5
171 -8 267 -37 58 -19 170 -66 250 -107 80 -41 158 -74 174 -74 15 0 71 24
125 54 208 117 379 166 580 166 321 0 569 -106 796 -341 88 -92 107 -118 159
-221 32 -64 67 -126 77 -137 23 -25 45 -27 53 -5 3 9 6 126 6 260 0 210 -3
260 -21 347 -57 277 -178 542 -334 733 -30 37 -55 71 -55 76 0 20 30 65 65 98
21 19 70 78 109 130 113 149 192 250 241 310 25 30 73 91 107 135 34 44 83
105 108 135 26 30 67 82 91 115 24 33 80 105 124 161 44 55 116 147 160 204
44 57 99 127 123 154 23 28 75 94 115 147 94 122 175 221 195 237 20 15 27 15
60 -2z"/>
<path d="M3460 8273 c-159 -162 -207 -216 -323 -369 -135 -181 -302 -457 -354
-589 -26 -67 -27 -78 -28 -245 l0 -176 37 -75 c58 -117 149 -197 389 -340 710
-425 741 -446 775 -521 20 -45 14 -63 -28 -87 -33 -19 -27 -21 -845 251 -348
115 -637 207 -643 203 -23 -14 -54 -165 -85 -425 -20 -156 -20 -581 -1 -671
36 -168 179 -366 311 -428 145 -69 218 -76 925 -89 362 -7 390 -10 404 -48 11
-28 6 -69 -10 -92 -29 -41 -5 -35 -484 -133 -162 -33 -383 -77 -490 -99 -206
-41 -424 -87 -451 -96 -9 -2 -19 -14 -22 -25 -5 -19 66 -234 106 -319 9 -19
41 -90 71 -158 101 -227 139 -286 255 -405 87 -89 120 -115 185 -148 l78 -39
133 0 c116 0 144 3 231 29 102 29 244 84 374 144 425 196 452 205 504 183 98
-41 47 -129 -190 -333 -51 -43 -150 -132 -221 -198 -71 -66 -184 -169 -252
-230 -249 -224 -235 -210 -223 -231 19 -35 215 -218 315 -294 55 -41 118 -90
140 -109 42 -33 207 -116 347 -173 63 -26 93 -32 182 -36 121 -5 174 5 261 49
110 56 185 115 377 299 347 332 345 330 394 330 34 0 69 -46 61 -80 -3 -14
-60 -135 -127 -270 -66 -135 -129 -267 -139 -293 -11 -26 -58 -124 -105 -218
-47 -94 -83 -176 -81 -184 8 -20 260 -96 432 -129 348 -67 391 -71 840 -71
l420 1 190 32 c202 35 554 120 606 147 24 13 30 21 25 39 -5 22 -112 245 -316
661 -117 238 -128 271 -109 311 12 24 21 30 55 32 38 3 46 -2 134 -80 52 -46
166 -153 255 -239 113 -111 190 -176 262 -223 148 -97 179 -109 303 -114 123
-5 191 9 308 64 42 20 113 52 156 70 44 19 91 45 105 58 14 14 49 42 78 63 92
68 327 271 367 318 30 36 37 50 30 65 -9 20 -215 215 -294 278 -25 20 -101 89
-170 152 -69 64 -152 137 -185 162 -75 58 -285 270 -285 289 0 8 -3 24 -6 36
-9 34 27 63 79 63 43 0 166 -50 462 -188 157 -73 370 -155 445 -172 34 -7 108
-11 190 -8 135 3 135 3 215 43 63 31 101 60 176 135 96 94 98 97 182 270 47
96 104 220 127 275 49 114 120 320 120 347 0 17 -27 28 -110 43 -19 3 -73 14
-120 25 -47 10 -202 42 -345 70 -143 28 -332 66 -420 85 -88 18 -225 46 -305
60 -229 42 -274 70 -239 148 25 55 45 56 879 75 395 9 409 11 530 72 70 35
194 163 237 245 17 33 44 103 59 155 27 93 28 101 27 345 0 250 -4 303 -42
552 -25 163 -40 223 -57 230 -7 2 -300 -90 -651 -206 -351 -116 -672 -222
-714 -236 -98 -32 -133 -32 -165 1 -45 44 -19 92 91 167 64 44 649 398 830
503 141 82 220 162 264 269 30 71 31 78 31 228 0 128 -4 167 -21 223 -40 133
-189 390 -348 603 -48 63 -108 144 -134 180 -56 77 -335 361 -356 361 -19 0
-70 -57 -166 -185 -45 -60 -90 -117 -100 -125 -10 -8 -49 -55 -86 -105 -37
-49 -100 -130 -139 -180 -39 -49 -92 -117 -117 -150 -100 -129 -264 -337 -406
-515 -51 -63 -138 -175 -195 -250 -56 -74 -125 -161 -152 -192 -28 -31 -50
-65 -50 -76 0 -10 12 -29 26 -43 36 -34 130 -179 184 -284 86 -169 142 -338
175 -527 18 -102 21 -518 4 -567 -19 -53 -75 -68 -122 -31 -14 11 -55 78 -91
148 -60 119 -71 134 -173 235 -184 183 -323 256 -567 298 -241 42 -420 10
-692 -126 -93 -47 -181 -85 -195 -85 -14 0 -92 34 -173 76 -94 48 -190 89
-264 111 -112 34 -124 36 -272 37 -141 1 -164 -2 -255 -27 -186 -52 -341 -135
-448 -240 -78 -76 -194 -238 -237 -331 -41 -90 -61 -113 -107 -122 -26 -5 -37
-1 -58 20 l-26 26 4 278 c3 184 9 305 19 362 42 239 168 518 324 722 24 31 44
65 44 76 0 11 -19 42 -43 68 -59 68 -369 460 -558 706 -85 111 -339 434 -437
556 -37 46 -92 116 -122 155 -134 174 -229 287 -245 287 -5 0 -75 -66 -155
-147z m2447 -2708 c99 -27 168 -57 243 -108 59 -41 229 -205 282 -274 40 -53
42 -54 53 -32 7 12 75 84 151 161 133 133 144 142 249 194 63 31 140 60 180
69 105 22 294 20 383 -5 127 -35 159 -56 284 -180 103 -102 122 -126 154 -196
63 -139 74 -200 74 -430 0 -172 -3 -217 -21 -291 -49 -204 -131 -394 -229
-524 -27 -36 -109 -124 -183 -195 -111 -107 -153 -141 -254 -200 -142 -85
-271 -139 -454 -193 -178 -52 -266 -65 -391 -59 -228 12 -577 134 -813 285
-41 27 -135 110 -228 202 -167 164 -223 241 -298 407 -68 152 -109 377 -109
604 0 212 60 402 168 528 88 103 194 187 273 217 105 40 120 43 262 44 108 1
144 -3 224 -24z"/>
<path d="M5523 5530 c-122 -32 -177 -64 -278 -164 -108 -107 -151 -182 -190
-332 -22 -84 -25 -117 -25 -258 0 -253 33 -413 125 -605 73 -151 119 -212 272
-362 223 -220 443 -338 794 -425 118 -29 156 -34 251 -34 123 1 145 4 291 44
168 45 338 114 468 188 116 66 135 82 290 237 130 130 176 184 213 246 59 102
117 250 150 385 24 96 26 123 26 321 0 193 -2 225 -21 285 -37 120 -80 193
-170 285 -109 111 -153 142 -252 176 -74 25 -95 28 -212 28 -155 -1 -219 -15
-355 -81 -87 -43 -106 -58 -226 -178 -81 -81 -142 -151 -159 -184 -16 -29 -33
-51 -39 -49 -6 2 -27 26 -46 53 -19 27 -96 110 -170 184 -112 112 -148 141
-210 172 -164 82 -372 109 -527 68z m228 -595 c251 -61 283 -90 484 -430 148
-251 196 -315 236 -315 37 1 63 27 126 132 229 382 265 437 315 484 29 28 73
60 98 71 53 26 306 95 368 101 l42 4 0 -66 c0 -70 -12 -103 -59 -165 -42 -55
-87 -75 -286 -130 -141 -38 -199 -59 -223 -79 -20 -16 -92 -123 -180 -269 -81
-133 -159 -257 -174 -275 -23 -29 -28 -31 -41 -18 -14 14 -91 137 -249 400
-97 160 -112 174 -228 209 -52 16 -108 32 -125 35 -168 33 -258 89 -314 196
-29 54 -31 119 -5 145 19 18 14 19 215 -30z"/>
<path d="M5574 4905 c-10 -24 5 -66 36 -106 59 -74 88 -87 293 -139 106 -26
194 -46 196 -44 12 12 -50 111 -98 158 -65 61 -114 82 -282 120 -136 30 -138
31 -145 11z"/>
<path d="M7240 4899 c-222 -50 -306 -101 -370 -223 -17 -32 -29 -60 -28 -61 2
-2 97 21 211 50 189 48 212 56 243 86 40 39 74 104 74 142 0 33 -10 33 -130 6z"/>
</g>
</svg>
